{
	"asset":{
		"generator":"Khronos glTF Blender I/O v4.4.56",
		"version":"2.0"
	},
	"scene":0,
	"scenes":[
		{
			"name":"Scene",
			"nodes":[
				0,
				1,
				2,
				3,
				4,
				5,
				6,
				7
			]
		}
	],
	"nodes":[
		{
			"mesh":0,
			"name":"Curve",
			"scale":[
				3.182858467102051,
				3.182858467102051,
				3.182858467102051
			]
		},
		{
			"mesh":1,
			"name":"Curve.001",
			"scale":[
				3.182858467102051,
				3.182858467102051,
				3.182858467102051
			]
		},
		{
			"mesh":2,
			"name":"Curve.002",
			"scale":[
				3.182858467102051,
				3.182858467102051,
				3.182858467102051
			]
		},
		{
			"mesh":3,
			"name":"Curve.003",
			"scale":[
				3.182858467102051,
				3.182858467102051,
				3.182858467102051
			],
			"translation":[
				0,
				0.060403335839509964,
				0
			]
		},
		{
			"mesh":4,
			"name":"Curve.004",
			"rotation":[
				0,
				0,
				0.00719806831330061,
				0.9999741315841675
			],
			"scale":[
				3.1828582286834717,
				3.1828582286834717,
				3.182858467102051
			],
			"translation":[
				0,
				0.06042535975575447,
				0
			]
		},
		{
			"mesh":5,
			"name":"Lower triangle side",
			"rotation":[
				-0.005576223600655794,
				-0.003674183040857315,
				-0.012661122716963291,
				0.9998976588249207
			],
			"scale":[
				3.182858467102051,
				3.182858467102051,
				3.18285870552063
			],
			"translation":[
				0,
				0.06434260308742523,
				0
			]
		},
		{
			"mesh":6,
			"name":"Curve.006",
			"scale":[
				3.182858467102051,
				3.182858467102051,
				3.182858467102051
			],
			"translation":[
				0,
				0.06217128038406372,
				0
			]
		},
		{
			"mesh":7,
			"name":"Curve.007",
			"scale":[
				3.182858467102051,
				3.182858467102051,
				3.182858467102051
			],
			"translation":[
				0,
				0.06217128038406372,
				0
			]
		}
	],
	"materials":[
		{
			"doubleSided":true,
			"name":"SVGMat",
			"pbrMetallicRoughness":{
				"baseColorFactor":[
					0,
					0,
					0,
					1
				],
				"metallicFactor":0,
				"roughnessFactor":0.4000000059604645
			}
		},
		{
			"doubleSided":true,
			"name":"SVGMat.001",
			"pbrMetallicRoughness":{
				"baseColorFactor":[
					1,
					1,
					1,
					1
				],
				"metallicFactor":0,
				"roughnessFactor":0.4000000059604645
			}
		},
		{
			"doubleSided":true,
			"name":"Material.001",
			"pbrMetallicRoughness":{
				"baseColorTexture":{
					"index":0
				},
				"metallicFactor":0,
				"roughnessFactor":0.5
			}
		},
		{
			"doubleSided":true,
			"name":"Material.002",
			"pbrMetallicRoughness":{
				"baseColorTexture":{
					"index":1
				},
				"metallicFactor":0,
				"roughnessFactor":0.5
			}
		},
		{
			"doubleSided":true,
			"name":"Material.003",
			"pbrMetallicRoughness":{
				"baseColorTexture":{
					"index":2
				},
				"metallicFactor":0,
				"roughnessFactor":0.5
			}
		},
		{
			"doubleSided":true,
			"name":"Material.004",
			"pbrMetallicRoughness":{
				"baseColorTexture":{
					"index":3
				},
				"metallicFactor":0,
				"roughnessFactor":0.5
			}
		}
	],
	"meshes":[
		{
			"name":"Curve",
			"primitives":[
				{
					"attributes":{
						"POSITION":0,
						"NORMAL":1,
						"TEXCOORD_0":2
					},
					"indices":3,
					"material":0
				}
			]
		},
		{
			"name":"Curve.001",
			"primitives":[
				{
					"attributes":{
						"POSITION":4,
						"NORMAL":5,
						"TEXCOORD_0":6
					},
					"indices":7,
					"material":0
				}
			]
		},
		{
			"name":"Curve.002",
			"primitives":[
				{
					"attributes":{
						"POSITION":8,
						"NORMAL":9,
						"TEXCOORD_0":10
					},
					"indices":11,
					"material":0
				}
			]
		},
		{
			"name":"Curve.003",
			"primitives":[
				{
					"attributes":{
						"POSITION":12,
						"NORMAL":13,
						"TEXCOORD_0":14
					},
					"indices":15,
					"material":1
				}
			]
		},
		{
			"name":"Curve.004",
			"primitives":[
				{
					"attributes":{
						"POSITION":16,
						"NORMAL":17,
						"TEXCOORD_0":18
					},
					"indices":19,
					"material":2
				}
			]
		},
		{
			"name":"Curve.005",
			"primitives":[
				{
					"attributes":{
						"POSITION":20,
						"NORMAL":21,
						"TEXCOORD_0":22
					},
					"indices":23,
					"material":3
				}
			]
		},
		{
			"name":"Curve.006",
			"primitives":[
				{
					"attributes":{
						"POSITION":24,
						"NORMAL":25,
						"TEXCOORD_0":26
					},
					"indices":27,
					"material":4
				}
			]
		},
		{
			"name":"Curve.007",
			"primitives":[
				{
					"attributes":{
						"POSITION":28,
						"NORMAL":29,
						"TEXCOORD_0":30
					},
					"indices":31,
					"material":5
				}
			]
		}
	],
	"textures":[
		{
			"sampler":0,
			"source":0
		},
		{
			"sampler":0,
			"source":1
		},
		{
			"sampler":0,
			"source":2
		},
		{
			"sampler":0,
			"source":3
		}
	],
	"images":[
		{
			"mimeType":"image/png",
			"name":"UpperDiffuse",
			"uri":"UpperDiffuse.png"
		},
		{
			"mimeType":"image/png",
			"name":"bottomDiffuse",
			"uri":"bottomDiffuse.png"
		},
		{
			"mimeType":"image/png",
			"name":"sideDiffuse",
			"uri":"sideDiffuse.png"
		},
		{
			"mimeType":"image/png",
			"name":"middleDiffuse",
			"uri":"middleDiffuse.png"
		}
	],
	"accessors":[
		{
			"bufferView":0,
			"componentType":5126,
			"count":1692,
			"max":[
				0.17680960893630981,
				0.009999999776482582,
				-0.0002821683883666992
			],
			"min":[
				4.703797458205372e-05,
				-0.009999999776482582,
				-0.03329586982727051
			],
			"type":"VEC3"
		},
		{
			"bufferView":1,
			"componentType":5126,
			"count":1692,
			"type":"VEC3"
		},
		{
			"bufferView":2,
			"componentType":5126,
			"count":1692,
			"type":"VEC2"
		},
		{
			"bufferView":3,
			"componentType":5123,
			"count":4884,
			"type":"SCALAR"
		},
		{
			"bufferView":4,
			"componentType":5126,
			"count":192,
			"max":[
				0.18358930945396423,
				0,
				-0.026241660118103027
			],
			"min":[
				0.17709806561470032,
				0,
				-0.03273153305053711
			],
			"type":"VEC3"
		},
		{
			"bufferView":5,
			"componentType":5126,
			"count":192,
			"type":"VEC3"
		},
		{
			"bufferView":6,
			"componentType":5126,
			"count":192,
			"type":"VEC2"
		},
		{
			"bufferView":7,
			"componentType":5123,
			"count":576,
			"type":"SCALAR"
		},
		{
			"bufferView":8,
			"componentType":5126,
			"count":49,
			"max":[
				0.18175482749938965,
				0,
				-0.027934670448303223
			],
			"min":[
				0.17921477556228638,
				0,
				-0.031038522720336914
			],
			"type":"VEC3"
		},
		{
			"bufferView":9,
			"componentType":5126,
			"count":49,
			"type":"VEC3"
		},
		{
			"bufferView":10,
			"componentType":5126,
			"count":49,
			"type":"VEC2"
		},
		{
			"bufferView":11,
			"componentType":5123,
			"count":147,
			"type":"SCALAR"
		},
		{
			"bufferView":12,
			"componentType":5126,
			"count":6,
			"max":[
				0.027940571308135986,
				0,
				-0.006207704544067383
			],
			"min":[
				0.0076201558113098145,
				0,
				-0.026523828506469727
			],
			"type":"VEC3"
		},
		{
			"bufferView":13,
			"componentType":5126,
			"count":6,
			"type":"VEC3"
		},
		{
			"bufferView":14,
			"componentType":5126,
			"count":6,
			"type":"VEC2"
		},
		{
			"bufferView":15,
			"componentType":5123,
			"count":12,
			"type":"SCALAR"
		},
		{
			"bufferView":16,
			"componentType":5126,
			"count":77,
			"max":[
				0.029633939266204834,
				0,
				-0.014954924583435059
			],
			"min":[
				0.009031295776367188,
				0,
				-0.028928790241479874
			],
			"type":"VEC3"
		},
		{
			"bufferView":17,
			"componentType":5126,
			"count":77,
			"type":"VEC3"
		},
		{
			"bufferView":18,
			"componentType":5126,
			"count":77,
			"type":"VEC2"
		},
		{
			"bufferView":19,
			"componentType":5123,
			"count":225,
			"type":"SCALAR"
		},
		{
			"bufferView":20,
			"componentType":5126,
			"count":80,
			"max":[
				0.03002200275659561,
				0,
				-0.004796862602233887
			],
			"min":[
				0.00733792781829834,
				0,
				-0.018905282020568848
			],
			"type":"VEC3"
		},
		{
			"bufferView":21,
			"componentType":5126,
			"count":80,
			"type":"VEC3"
		},
		{
			"bufferView":22,
			"componentType":5126,
			"count":80,
			"type":"VEC2"
		},
		{
			"bufferView":23,
			"componentType":5123,
			"count":234,
			"type":"SCALAR"
		},
		{
			"bufferView":24,
			"componentType":5126,
			"count":96,
			"max":[
				0.01411139965057373,
				0,
				-0.004796862602233887
			],
			"min":[
				0.005906699225306511,
				0,
				-0.027081139385700226
			],
			"type":"VEC3"
		},
		{
			"bufferView":25,
			"componentType":5126,
			"count":96,
			"type":"VEC3"
		},
		{
			"bufferView":26,
			"componentType":5126,
			"count":96,
			"type":"VEC2"
		},
		{
			"bufferView":27,
			"componentType":5123,
			"count":282,
			"type":"SCALAR"
		},
		{
			"bufferView":28,
			"componentType":5126,
			"count":3,
			"max":[
				0.023424923419952393,
				0,
				-0.01100456714630127
			],
			"min":[
				0.011853575706481934,
				0,
				-0.022855639457702637
			],
			"type":"VEC3"
		},
		{
			"bufferView":29,
			"componentType":5126,
			"count":3,
			"type":"VEC3"
		},
		{
			"bufferView":30,
			"componentType":5126,
			"count":3,
			"type":"VEC2"
		},
		{
			"bufferView":31,
			"componentType":5123,
			"count":3,
			"type":"SCALAR"
		}
	],
	"bufferViews":[
		{
			"buffer":0,
			"byteLength":20304,
			"byteOffset":0,
			"target":34962
		},
		{
			"buffer":0,
			"byteLength":20304,
			"byteOffset":20304,
			"target":34962
		},
		{
			"buffer":0,
			"byteLength":13536,
			"byteOffset":40608,
			"target":34962
		},
		{
			"buffer":0,
			"byteLength":9768,
			"byteOffset":54144,
			"target":34963
		},
		{
			"buffer":0,
			"byteLength":2304,
			"byteOffset":63912,
			"target":34962
		},
		{
			"buffer":0,
			"byteLength":2304,
			"byteOffset":66216,
			"target":34962
		},
		{
			"buffer":0,
			"byteLength":1536,
			"byteOffset":68520,
			"target":34962
		},
		{
			"buffer":0,
			"byteLength":1152,
			"byteOffset":70056,
			"target":34963
		},
		{
			"buffer":0,
			"byteLength":588,
			"byteOffset":71208,
			"target":34962
		},
		{
			"buffer":0,
			"byteLength":588,
			"byteOffset":71796,
			"target":34962
		},
		{
			"buffer":0,
			"byteLength":392,
			"byteOffset":72384,
			"target":34962
		},
		{
			"buffer":0,
			"byteLength":294,
			"byteOffset":72776,
			"target":34963
		},
		{
			"buffer":0,
			"byteLength":72,
			"byteOffset":73072,
			"target":34962
		},
		{
			"buffer":0,
			"byteLength":72,
			"byteOffset":73144,
			"target":34962
		},
		{
			"buffer":0,
			"byteLength":48,
			"byteOffset":73216,
			"target":34962
		},
		{
			"buffer":0,
			"byteLength":24,
			"byteOffset":73264,
			"target":34963
		},
		{
			"buffer":0,
			"byteLength":924,
			"byteOffset":73288,
			"target":34962
		},
		{
			"buffer":0,
			"byteLength":924,
			"byteOffset":74212,
			"target":34962
		},
		{
			"buffer":0,
			"byteLength":616,
			"byteOffset":75136,
			"target":34962
		},
		{
			"buffer":0,
			"byteLength":450,
			"byteOffset":75752,
			"target":34963
		},
		{
			"buffer":0,
			"byteLength":960,
			"byteOffset":76204,
			"target":34962
		},
		{
			"buffer":0,
			"byteLength":960,
			"byteOffset":77164,
			"target":34962
		},
		{
			"buffer":0,
			"byteLength":640,
			"byteOffset":78124,
			"target":34962
		},
		{
			"buffer":0,
			"byteLength":468,
			"byteOffset":78764,
			"target":34963
		},
		{
			"buffer":0,
			"byteLength":1152,
			"byteOffset":79232,
			"target":34962
		},
		{
			"buffer":0,
			"byteLength":1152,
			"byteOffset":80384,
			"target":34962
		},
		{
			"buffer":0,
			"byteLength":768,
			"byteOffset":81536,
			"target":34962
		},
		{
			"buffer":0,
			"byteLength":564,
			"byteOffset":82304,
			"target":34963
		},
		{
			"buffer":0,
			"byteLength":36,
			"byteOffset":82868,
			"target":34962
		},
		{
			"buffer":0,
			"byteLength":36,
			"byteOffset":82904,
			"target":34962
		},
		{
			"buffer":0,
			"byteLength":24,
			"byteOffset":82940,
			"target":34962
		},
		{
			"buffer":0,
			"byteLength":6,
			"byteOffset":82964,
			"target":34963
		}
	],
	"samplers":[
		{
			"magFilter":9729,
			"minFilter":9987
		}
	],
	"buffers":[
		{
			"byteLength":82972,
			"uri":"logo.bin"
		}
	]
}
